<svg xmlns="http://www.w3.org/2000/svg" viewBox="0 0 45.11 45.11"><defs><style>.cls-1{fill:none;stroke:#4d4d4f;stroke-miterlimit:10;stroke-width:1.71px;}.cls-2{fill:#cc6c19;}.cls-3{fill:#fff;}</style></defs><title>icono-yt</title><g id="Layer_2" data-name="Layer 2"><g id="Capa_1" data-name="Capa 1"><path class="cls-1" d="M22.55,44.25h0A21.69,21.69,0,0,1,.86,22.56h0A21.69,21.69,0,0,1,22.55.86h0a21.69,21.69,0,0,1,21.7,21.7h0A21.69,21.69,0,0,1,22.55,44.25Z"/><path class="cls-2" d="M36.87,15.32a3.74,3.74,0,0,0-2.64-2.66C31.9,12,22.55,12,22.55,12s-9.34,0-11.67.63a3.74,3.74,0,0,0-2.64,2.66,39.64,39.64,0,0,0-.62,7.24,39.55,39.55,0,0,0,.62,7.23,3.74,3.74,0,0,0,2.64,2.66c2.33.63,11.67.63,11.67.63s9.35,0,11.68-.63a3.74,3.74,0,0,0,2.64-2.66,39.55,39.55,0,0,0,.62-7.23A39.64,39.64,0,0,0,36.87,15.32Z"/><polygon class="cls-3" points="19.5 27 19.5 18.11 27.31 22.55 19.5 27"/></g></g></svg>