<svg xmlns="http://www.w3.org/2000/svg" viewBox="0 0 45.11 45.11"><defs><style>.cls-1{fill:none;stroke:#4d4d4f;stroke-miterlimit:10;stroke-width:1.71px;}.cls-2{fill:#cc6c19;}</style></defs><title>icono-ig</title><g id="Layer_2" data-name="Layer 2"><g id="Capa_1" data-name="Capa 1"><path class="cls-1" d="M22.56,44.25h0A21.69,21.69,0,0,1,.86,22.56h0A21.69,21.69,0,0,1,22.56.86h0A21.69,21.69,0,0,1,44.25,22.55h0A21.69,21.69,0,0,1,22.56,44.25Z"/><path class="cls-2" d="M22.56,12.8c3.17,0,3.55,0,4.8.07a6.59,6.59,0,0,1,2.21.41,3.93,3.93,0,0,1,2.26,2.26,6.59,6.59,0,0,1,.41,2.21c.06,1.25.07,1.63.07,4.81s0,3.55-.07,4.8a6.59,6.59,0,0,1-.41,2.21,3.93,3.93,0,0,1-2.26,2.26,6.59,6.59,0,0,1-2.21.41c-1.25.06-1.63.07-4.8.07s-3.56,0-4.81-.07a6.59,6.59,0,0,1-2.21-.41,3.93,3.93,0,0,1-2.26-2.26,6.59,6.59,0,0,1-.41-2.21c-.06-1.25-.07-1.63-.07-4.8s0-3.56.07-4.81a6.59,6.59,0,0,1,.41-2.21,3.93,3.93,0,0,1,2.26-2.26,6.59,6.59,0,0,1,2.21-.41c1.25-.06,1.63-.07,4.81-.07m0-2.14c-3.24,0-3.64,0-4.91.07a8.92,8.92,0,0,0-2.89.55,6,6,0,0,0-3.48,3.48,8.92,8.92,0,0,0-.55,2.89c-.06,1.27-.07,1.67-.07,4.91s0,3.63.07,4.9a8.92,8.92,0,0,0,.55,2.89,6,6,0,0,0,3.48,3.48,8.92,8.92,0,0,0,2.89.55c1.27.06,1.67.07,4.91.07s3.63,0,4.9-.07a8.92,8.92,0,0,0,2.89-.55,6,6,0,0,0,3.48-3.48,8.92,8.92,0,0,0,.55-2.89c.06-1.27.07-1.67.07-4.9s0-3.64-.07-4.91a8.92,8.92,0,0,0-.55-2.89,6,6,0,0,0-3.48-3.48,8.92,8.92,0,0,0-2.89-.55c-1.27-.06-1.67-.07-4.9-.07"/><path class="cls-2" d="M22.56,16.45a6.11,6.11,0,1,0,6.1,6.11,6.1,6.1,0,0,0-6.1-6.11m0,10.07a4,4,0,1,1,4-4,4,4,0,0,1-4,4"/><path class="cls-2" d="M30.33,16.2a1.43,1.43,0,1,1-1.42-1.42,1.43,1.43,0,0,1,1.42,1.42"/></g></g></svg>