<svg xmlns="http://www.w3.org/2000/svg" viewBox="0 0 45.11 45.11"><defs><style>.cls-1{fill:#cc6c19;}.cls-2{fill:none;stroke:#4d4d4f;stroke-miterlimit:10;stroke-width:1.71px;}</style></defs><title>icono-uvas</title><g id="Layer_2" data-name="Layer 2"><g id="Capa_1" data-name="Capa 1"><path class="cls-1" d="M34,20.12a4.29,4.29,0,0,0-8.05-2.06,4.29,4.29,0,0,0-3.08-2.17,9.48,9.48,0,0,0-.1-1.65c.22,0,.48,0,.77,0a5.18,5.18,0,0,0,3.33-1c1.78-1.49,1.72-4.35,1.72-4.47V8.23L28,8.12A8.2,8.2,0,0,0,26.63,8a5.21,5.21,0,0,0-3.34,1,4.82,4.82,0,0,0-1.47,2.54A5.49,5.49,0,0,0,18.38,9a.69.69,0,0,0-.83.49.68.68,0,0,0,.49.83,4.24,4.24,0,0,1,3.11,3.08,7.29,7.29,0,0,1,.3,2.45,4.27,4.27,0,0,0-3.07,2.17,4.29,4.29,0,1,0-3.76,6.35h.12A4.29,4.29,0,0,0,18.38,31h.12a4.29,4.29,0,1,0,7.28,0h.12a4.29,4.29,0,0,0,3.64-6.56h.12A4.29,4.29,0,0,0,34,20.12Zm-4.29-2.77a2.78,2.78,0,1,1-2.78,2.77A2.78,2.78,0,0,1,29.66,17.35Zm-5.49-7.27a3.9,3.9,0,0,1,2.46-.72l.52,0A4.36,4.36,0,0,1,26,12.2a3.93,3.93,0,0,1-2.46.72l-.52,0A4.31,4.31,0,0,1,24.17,10.08Zm-2,7.27a2.78,2.78,0,1,1-2.78,2.77A2.78,2.78,0,0,1,22.14,17.35Zm-10.3,2.77a2.78,2.78,0,1,1,2.78,2.78A2.78,2.78,0,0,1,11.84,20.12Zm3.76,6.56a2.78,2.78,0,1,1,2.78,2.77A2.78,2.78,0,0,1,15.6,26.68ZM22.14,36a2.78,2.78,0,1,1,2.78-2.78A2.79,2.79,0,0,1,22.14,36Zm3.76-6.56a2.78,2.78,0,1,1,2.78-2.77A2.78,2.78,0,0,1,25.9,29.45Z"/><rect class="cls-2" x="0.86" y="0.86" width="43.4" height="43.4" rx="21.7"/></g></g></svg>