<svg xmlns="http://www.w3.org/2000/svg" viewBox="0 0 45.11 45.11"><defs><style>.cls-1{fill:none;stroke:#4d4d4f;stroke-width:1.71px;}.cls-1,.cls-2{stroke-miterlimit:10;}.cls-2{fill:#cc6c19;stroke:#cc6c19;fill-rule:evenodd;}</style></defs><title>icono-mail</title><g id="Layer_2" data-name="Layer 2"><g id="Capa_1" data-name="Capa 1"><rect class="cls-1" x="0.86" y="0.86" width="43.4" height="43.4" rx="21.7"/><path class="cls-2" d="M35.08,29.52l-7.66-5.8-4.73,3.57a.3.3,0,0,1-.36,0l-4.72-3.58-7.67,5.8a1.19,1.19,0,0,0,.33.65h0a1.15,1.15,0,0,0,.83.35h22.8a1.17,1.17,0,0,0,.84-.35,1.19,1.19,0,0,0,.33-.65Zm-7.84-6.4-4.73,3.57-4.72-3.57h0L9.93,17.17V15.7a1.18,1.18,0,0,1,1.18-1.18h22.8a1.2,1.2,0,0,1,.84.34h0a1.21,1.21,0,0,1,.35.84v1.47l-7.86,5.94Zm.67.23,7.19-5.43V28.78l-7.19-5.43Zm-18-5.43,7.19,5.43L9.93,28.78V17.92Zm1.18-4h22.8a1.8,1.8,0,0,1,1.26.52h0a1.76,1.76,0,0,1,.52,1.25V29.33a1.78,1.78,0,0,1-1.78,1.78H11.11a1.78,1.78,0,0,1-1.25-.52h0a1.75,1.75,0,0,1-.53-1.26V15.7a1.79,1.79,0,0,1,1.78-1.78Z"/></g></g></svg>