<svg xmlns="http://www.w3.org/2000/svg" viewBox="0 0 300.79 60.29"><defs><style>.cls-1{fill:#4d4d4f;}.cls-2{fill:#cc6c19;}</style></defs><title>logo-elementos</title><g id="Layer_2" data-name="Layer 2"><g id="Capa_1" data-name="Capa 1"><path class="cls-1" d="M24,42.48h2.78L28.57,56.1h.05l1.8-13.62H33L30.3,60H26.64Z"/><path class="cls-1" d="M35.29,55.88V46.65c0-2.81,1.48-4.42,4.19-4.42s4.18,1.61,4.18,4.42v9.23c0,2.81-1.48,4.41-4.18,4.41S35.29,58.69,35.29,55.88Zm5.62.17V46.47c0-1.25-.56-1.73-1.43-1.73s-1.43.48-1.43,1.73v9.58c0,1.26.55,1.73,1.43,1.73S40.91,57.31,40.91,56.05Z"/><path class="cls-1" d="M46.3,55.88v-1h2.61v1.21c0,1.25.55,1.7,1.43,1.7s1.42-.45,1.42-1.75c0-1.46-.55-2.39-2.35-4-2.31-2-3.06-3.46-3.06-5.46,0-2.76,1.43-4.37,4.11-4.37s4,1.61,4,4.42v.72H51.86v-.9c0-1.25-.5-1.73-1.37-1.73s-1.38.48-1.38,1.68.57,2.21,2.38,3.79c2.31,2,3,3.43,3,5.62,0,2.86-1.45,4.46-4.16,4.46S46.3,58.69,46.3,55.88Z"/><path class="cls-1" d="M62.15,55.88v-1h2.6v1.21c0,1.25.56,1.7,1.43,1.7s1.43-.45,1.43-1.75c0-1.46-.55-2.39-2.35-4C63,50,62.2,48.6,62.2,46.6c0-2.76,1.43-4.37,4.11-4.37s4,1.61,4,4.42v.72H67.71v-.9c0-1.25-.5-1.73-1.37-1.73S65,45.22,65,46.42s.57,2.21,2.38,3.79c2.31,2,3,3.43,3,5.62,0,2.86-1.45,4.46-4.16,4.46S62.15,58.69,62.15,55.88Z"/><path class="cls-1" d="M73,55.88V46.65c0-2.81,1.48-4.42,4.19-4.42s4.19,1.61,4.19,4.42v9.23c0,2.81-1.48,4.41-4.19,4.41S73,58.69,73,55.88Zm5.62.17V46.47c0-1.25-.55-1.73-1.43-1.73s-1.43.48-1.43,1.73v9.58c0,1.26.56,1.73,1.43,1.73S78.62,57.31,78.62,56.05Z"/><path class="cls-1" d="M84.49,42.48h4.09c2.86,0,4.09,1.33,4.09,4V47.6c0,1.81-.58,3-1.81,3.46v0c1.38.43,1.83,1.73,1.83,3.71v3.09A5.26,5.26,0,0,0,93,60H90.18a5.43,5.43,0,0,1-.25-2.16V54.67c0-1.63-.47-2.15-1.73-2.15h-1V60H84.49ZM88.25,50c1,0,1.66-.45,1.66-1.86V46.8c0-1.26-.43-1.81-1.41-1.81H87.25v5Z"/><path class="cls-1" d="M95.85,42.48h4.06c2.76,0,4.12,1.53,4.12,4.34v1.73c0,2.81-1.36,4.34-4.12,4.34h-1.3V60H95.85Zm4.06,7.9c.88,0,1.36-.4,1.36-1.65V46.65c0-1.26-.48-1.66-1.36-1.66h-1.3v5.39Z"/><path class="cls-1" d="M106.79,42.48h4.08c2.86,0,4.09,1.33,4.09,4V47.6c0,1.81-.57,3-1.8,3.46v0c1.38.43,1.83,1.73,1.83,3.71v3.09a5.1,5.1,0,0,0,.3,2.13h-2.81a5.43,5.43,0,0,1-.25-2.16V54.67c0-1.63-.48-2.15-1.73-2.15h-1V60h-2.75ZM110.55,50c1,0,1.65-.45,1.65-1.86V46.8c0-1.26-.42-1.81-1.4-1.81h-1.26v5Z"/><path class="cls-1" d="M118.15,42.48h7.52V45h-4.76v4.64h3.78v2.51h-3.78v5.39h4.76V60h-7.52Z"/><path class="cls-1" d="M128.5,42.48H132L134.65,53h0V42.48h2.46V60h-2.84L131,47.22h0V60H128.5Z"/><path class="cls-1" d="M140.47,42.48h4.21c2.76,0,4.11,1.53,4.11,4.34V55.7c0,2.81-1.35,4.34-4.11,4.34h-4.21Zm4.16,15.05c.88,0,1.4-.45,1.4-1.7V46.7c0-1.26-.52-1.71-1.4-1.71h-1.41V57.53Z"/><path class="cls-1" d="M151.9,42.48h2.76V60H151.9Z"/><path class="cls-1" d="M158,42.48h7.52V45h-4.76v4.64h3.79v2.51h-3.79v5.39h4.76V60H158Z"/><path class="cls-1" d="M168.33,42.48h3.46L174.47,53h.05V42.48H177V60h-2.83l-3.31-12.82h-.05V60h-2.46Z"/><path class="cls-1" d="M180.29,42.48h4.21c2.76,0,4.12,1.53,4.12,4.34V55.7c0,2.81-1.36,4.34-4.12,4.34h-4.21Zm4.16,15.05c.88,0,1.41-.45,1.41-1.7V46.7c0-1.26-.53-1.71-1.41-1.71h-1.4V57.53Z"/><path class="cls-1" d="M191.52,55.88V46.65c0-2.81,1.48-4.42,4.19-4.42s4.19,1.61,4.19,4.42v9.23c0,2.81-1.48,4.41-4.19,4.41S191.52,58.69,191.52,55.88Zm5.62.17V46.47c0-1.25-.55-1.73-1.43-1.73s-1.43.48-1.43,1.73v9.58c0,1.26.56,1.73,1.43,1.73S197.14,57.31,197.14,56.05Z"/><path class="cls-1" d="M205.07,45h-2.89V42.48h8.53V45h-2.88V60h-2.76Z"/><path class="cls-1" d="M213.29,42.48h7.53V45h-4.77v4.64h3.79v2.51h-3.79v5.39h4.77V60h-7.53Z"/><path class="cls-1" d="M231.05,42.48h3.74L237.64,60h-2.75l-.51-3.49v.05h-3.13l-.5,3.44h-2.56Zm3,11.74-1.23-8.68h-.05l-1.21,8.68Z"/><path class="cls-1" d="M244.77,42.48h2.78l1.8,13.62h.06l1.8-13.62h2.53L251.09,60h-3.67Z"/><path class="cls-1" d="M256.08,55.88V46.65c0-2.81,1.48-4.42,4.18-4.42s4.19,1.61,4.19,4.42v9.23c0,2.81-1.48,4.41-4.19,4.41S256.08,58.69,256.08,55.88Zm5.61.17V46.47c0-1.25-.55-1.73-1.43-1.73s-1.43.48-1.43,1.73v9.58c0,1.26.56,1.73,1.43,1.73S261.69,57.31,261.69,56.05Z"/><path class="cls-1" d="M267.08,55.88v-1h2.61v1.21c0,1.25.55,1.7,1.43,1.7s1.43-.45,1.43-1.75c0-1.46-.55-2.39-2.36-4-2.3-2-3.06-3.46-3.06-5.46,0-2.76,1.43-4.37,4.12-4.37s4,1.61,4,4.42v.72h-2.61v-.9c0-1.25-.5-1.73-1.38-1.73s-1.38.48-1.38,1.68.58,2.21,2.39,3.79c2.3,2,3,3.43,3,5.62,0,2.86-1.45,4.46-4.16,4.46S267.08,58.69,267.08,55.88Z"/><path class="cls-2" d="M1.31,31.17V30a10.7,10.7,0,0,0,2.15-1.27c.09-.61.16-1.61.22-3,.12-2.51.18-4.34.18-5.48V10.41c0-.38,0-1.81-.07-4.28a11.15,11.15,0,0,0-.31-3,.7.7,0,0,0-.33-.33A12.64,12.64,0,0,0,0,2.39V.53L5.08.64,8,.66c2,0,4.23,0,6.69-.07L19.1.48c.53,0,1.6,0,3.2.09A3,3,0,0,1,23,.7l.16.29-.42,3.15c0,.22-.09,1.27-.22,3.16H20.83a20.39,20.39,0,0,0-.19-3.18.79.79,0,0,0-.27-.44,5.2,5.2,0,0,0-1.75-.35,38.51,38.51,0,0,0-4.25-.24q-1.95,0-4,.15a54,54,0,0,0-.3,6.29V14c1,.07,2,.11,3.11.11L16.82,14a4,4,0,0,0,1.4-.15.85.85,0,0,0,.31-.46,10.91,10.91,0,0,0,.31-2.78h1.77l-.08,4.82.08,4.79H18.73a7.72,7.72,0,0,0-.33-3.13,1.28,1.28,0,0,0-.94-.55,25.58,25.58,0,0,0-3.88-.24c-1.41,0-2.58.05-3.5.13v9.29c0,1,0,1.93.06,2.68,1.19.08,2.59.13,4.21.13s3-.05,4.37-.16A7.11,7.11,0,0,0,21.18,28a.78.78,0,0,0,.29-.4,23.14,23.14,0,0,0,.83-4h1.8a67.61,67.61,0,0,0-.48,7.15l-.29.28q-1.39.15-4,.15l-3.52-.06C12.34,31.06,10,31,8.63,31Z"/><path class="cls-2" d="M32.17,31.17V30.06a14.6,14.6,0,0,0,1.6-.86,2,2,0,0,0,.59-.44.53.53,0,0,0,.11-.24c.07-.36.14-1.67.19-3.91s.09-4.93.09-8.07c0-4.62,0-7.46,0-8.54a28.46,28.46,0,0,0-.29-4.71.64.64,0,0,0-.32-.4,10,10,0,0,0-3.36-.44V.53c1.86.08,4,.13,6.36.13,2.65,0,5.17-.05,7.55-.13V2.45a10.16,10.16,0,0,0-3,.4.76.76,0,0,0-.35.43A18.82,18.82,0,0,0,41.07,6C41,7.59,41,9.62,41,12.07q0,.39,0,6.33,0,3.13,0,6.21c0,2.05,0,3.3,0,3.74,2,.09,3.39.13,4.12.13A37.85,37.85,0,0,0,51,28.09a2.83,2.83,0,0,0,1.07-.29,1.89,1.89,0,0,0,.37-.81c.29-1.11.58-2.38.86-3.81H55.1q-.06.62-.06.72l-.55,4.43c-.11,1.38-.18,2.22-.2,2.49a6.94,6.94,0,0,1-1.27.24c-.89.08-2.26.11-4.13.11-.27,0-2,0-5.15-.11-2.42,0-4.09-.08-5-.08C37.26,31,35.09,31,32.17,31.17Z"/><path class="cls-2" d="M60.61,31.17V30a10.7,10.7,0,0,0,2.15-1.27c.09-.61.16-1.61.22-3,.12-2.51.18-4.34.18-5.48V10.41c0-.38,0-1.81-.07-4.28a11.15,11.15,0,0,0-.31-3,.7.7,0,0,0-.33-.33,12.64,12.64,0,0,0-3.15-.39V.53l5.08.11,2.89,0q3,0,6.69-.07L78.4.48c.53,0,1.59,0,3.2.09a3,3,0,0,1,.72.13l.16.29-.42,3.15c0,.22-.09,1.27-.22,3.16H80.13a20.39,20.39,0,0,0-.19-3.18.79.79,0,0,0-.27-.44,5.2,5.2,0,0,0-1.75-.35,38.65,38.65,0,0,0-4.25-.24q-2,0-4,.15a54,54,0,0,0-.3,6.29V14c1,.07,2,.11,3.11.11L76.12,14a4,4,0,0,0,1.4-.15.85.85,0,0,0,.31-.46,10.91,10.91,0,0,0,.31-2.78h1.77l-.08,4.82.08,4.79H78a7.92,7.92,0,0,0-.33-3.13,1.28,1.28,0,0,0-.94-.55,25.58,25.58,0,0,0-3.88-.24c-1.41,0-2.58.05-3.5.13v9.29c0,1,0,1.93.06,2.68,1.19.08,2.59.13,4.21.13s3-.05,4.37-.16A7.11,7.11,0,0,0,80.48,28a.78.78,0,0,0,.29-.4,23.14,23.14,0,0,0,.83-4h1.8a67.61,67.61,0,0,0-.48,7.15l-.29.28q-1.39.15-4,.15l-3.52-.06c-3.48-.05-5.87-.07-7.19-.07Z"/><path class="cls-2" d="M90,31.17V29.31A15.43,15.43,0,0,0,93,29a.79.79,0,0,0,.41-.31,1.8,1.8,0,0,0,.27-.83c.1-.83.19-2.65.26-5.45,0-1.36.07-3.7.07-7,0-3,0-5.59-.07-7.88a21.87,21.87,0,0,0-.28-4.08,1,1,0,0,0-.28-.48,1.61,1.61,0,0,0-.71-.25A20.83,20.83,0,0,0,90,2.39V.53c3,.08,5.09.13,6.22.13,1.51,0,3-.05,4.54-.13l1.93,4.33,1.53,3.29,7,14.37c1.49-2.88,2.6-5.11,3.35-6.7l2.89-6.07c1.61-3.39,2.59-5.47,3-6.26s.76-1.77,1.21-3c1.92.1,3.14.15,3.68.15l6.53-.15V2.39h-.3a4.59,4.59,0,0,0-2.81.51A2.8,2.8,0,0,0,128.14,5c0,1.22,0,2.14,0,2.76L128,13.89v7.69c0,1.87,0,3,0,3.28.12,1.86.22,3,.31,3.42a1,1,0,0,0,.24.5,1.13,1.13,0,0,0,.5.28,22.78,22.78,0,0,0,2.76.25v1.86l-7-.13-6.83.13V29.31a10.88,10.88,0,0,0,3.1-.32,1.52,1.52,0,0,0,.55-1,46.76,46.76,0,0,0,.16-5.43V6.57l-5.08,10.28L114.32,22c-.65,1.34-1.55,3.29-2.72,5.85-.72,1.55-1.28,2.8-1.69,3.75h-1.49q-.78-1.85-2.28-5-2.53-5.48-3.85-8.17L96.53,6.57V17.33c0,1.8,0,3.93.07,6.41s.11,3.87.17,4.2a1.54,1.54,0,0,0,.27.71,1.45,1.45,0,0,0,.66.38,16.67,16.67,0,0,0,2.68.28v1.86c-1.63-.08-3.3-.13-5-.13C93.13,31,91.36,31.09,90,31.17Z"/><path class="cls-2" d="M139.17,31.17V30a10.88,10.88,0,0,0,2.14-1.27c.09-.61.16-1.61.22-3,.12-2.51.18-4.34.18-5.48V10.41c0-.38,0-1.81-.07-4.28a10.73,10.73,0,0,0-.31-3,.73.73,0,0,0-.32-.33,12.84,12.84,0,0,0-3.16-.39V.53l5.08.11,2.9,0c2,0,4.22,0,6.68-.07L157,.48c.53,0,1.6,0,3.2.09a3.19,3.19,0,0,1,.73.13L161,1l-.42,3.15c0,.22-.08,1.27-.22,3.16h-1.7a19.85,19.85,0,0,0-.2-3.18.85.85,0,0,0-.26-.44,5.29,5.29,0,0,0-1.76-.35,38.51,38.51,0,0,0-4.25-.24c-1.3,0-2.63.05-4,.15a51.62,51.62,0,0,0-.31,6.29V14c1,.07,2,.11,3.11.11l3.64-.09a3.89,3.89,0,0,0,1.39-.15.86.86,0,0,0,.32-.46,11.52,11.52,0,0,0,.3-2.78h1.78l-.09,4.82.09,4.79h-1.89a7.72,7.72,0,0,0-.33-3.13,1.28,1.28,0,0,0-.94-.55,25.58,25.58,0,0,0-3.88-.24c-1.41,0-2.58.05-3.5.13v9.29c0,1,0,1.93.06,2.68,1.19.08,2.59.13,4.21.13s3-.05,4.37-.16A7.25,7.25,0,0,0,159,28a.83.83,0,0,0,.28-.4,23.14,23.14,0,0,0,.83-4H162a67.61,67.61,0,0,0-.48,7.15l-.29.28c-.93.1-2.26.15-4,.15l-3.53-.06c-3.48-.05-5.87-.07-7.19-.07Z"/><path class="cls-2" d="M167.85,29.31a25.42,25.42,0,0,0,3-.24,1,1,0,0,0,.41-.28,2,2,0,0,0,.27-.81c.09-.56.19-1.9.31-4,.06-1.21.08-2.78.08-4.73v-7l-.08-6.37a14.21,14.21,0,0,0-.13-2.09,1.68,1.68,0,0,0-.32-.71,1.48,1.48,0,0,0-.69-.36,21.25,21.25,0,0,0-2.81-.28V.53c1.86.08,3.22.13,4.1.13l3.18-.07,2-.06q4.52,5.88,10.93,13.58c3.09,3.69,5.64,6.59,7.67,8.67V17.72c0-7.85-.09-12.48-.26-13.86a1.55,1.55,0,0,0-.4-1.06c-.33-.26-1.47-.4-3.41-.43V.53c1.78.08,3.41.13,4.9.13s3.31-.05,5.59-.13V2.37a8.7,8.7,0,0,0-3.18.39.6.6,0,0,0-.24.33,24.6,24.6,0,0,0-.42,5c-.07,2.61-.1,4.54-.1,5.78q0,14.56.28,17.68l-.28.19q-1.84-.3-3.75-.57-7.08-7.91-20.07-23.74V18.34q0,3.39.14,7.07a15.82,15.82,0,0,0,.26,3.09.94.94,0,0,0,.29.43,1.64,1.64,0,0,0,.74.23,18,18,0,0,0,2.08.17,4.27,4.27,0,0,0,.44,0v1.78L173.62,31c-1.42,0-3.34.05-5.77.13Z"/><path class="cls-2" d="M213.63,31.17V29.38a11,11,0,0,0,3.12-.35,1.39,1.39,0,0,0,.67-.88,35.92,35.92,0,0,0,.24-5.67V9.35c0-3.57,0-5.57-.07-6h-3.13c-1.58,0-3,0-4.16.16a2,2,0,0,0-.84.17,1.5,1.5,0,0,0-.26.77,21.72,21.72,0,0,0-.33,3.44h-1.82c-.06-3-.09-4.68-.11-5.06,0-.65-.11-1.34-.22-2.09l.2-.21q1,.1,2.19.15,1.89.06,7.25.06h8.85c3.68,0,6.15,0,7.39-.06.67,0,1.35-.08,2-.15l.22.21c-.13.9-.21,1.68-.24,2.35,0,.12,0,1.71-.09,4.8h-1.81a26,26,0,0,0-.29-3.27,2.27,2.27,0,0,0-.28-.94,1.59,1.59,0,0,0-.7-.15q-1.8-.18-4.32-.18H224q-.08.77-.07,6V22.48a36.35,36.35,0,0,0,.24,5.69,1.35,1.35,0,0,0,.66.85,10.58,10.58,0,0,0,3.13.36v1.79q-4.24-.2-7.16-.19Q217.69,31,213.63,31.17Z"/><path class="cls-2" d="M238.48,16.21a18.27,18.27,0,0,1,1.22-7,14.24,14.24,0,0,1,8.37-8.06A22.93,22.93,0,0,1,255.48,0a21.94,21.94,0,0,1,7.23,1.12,13.61,13.61,0,0,1,7.07,5.76,14,14,0,0,1,1.46,3.7,18.66,18.66,0,0,1,.49,4.45,20.2,20.2,0,0,1-1.42,7.64,13.82,13.82,0,0,1-3.08,4.67,14.33,14.33,0,0,1-4.61,3.13,21,21,0,0,1-8.1,1.47,18.61,18.61,0,0,1-8.47-1.78,13.2,13.2,0,0,1-5.56-5.27A17.18,17.18,0,0,1,238.48,16.21Zm6.75-1.29a21.82,21.82,0,0,0,1.4,8.44,9.88,9.88,0,0,0,3.59,4.73,9.51,9.51,0,0,0,5.17,1.38,9.34,9.34,0,0,0,4.94-1.32,8.67,8.67,0,0,0,3.42-4.45A20.78,20.78,0,0,0,265,16.1a22.35,22.35,0,0,0-.67-5.61,13.61,13.61,0,0,0-1.92-4.32,8.84,8.84,0,0,0-2.94-2.73A9.3,9.3,0,0,0,255,2.5,9.57,9.57,0,0,0,249.51,4a8.41,8.41,0,0,0-3.26,4.43A19.68,19.68,0,0,0,245.23,14.92Z"/><path class="cls-2" d="M298.32,8.54h-1.84A29.45,29.45,0,0,0,296.26,5a5.68,5.68,0,0,0-2.36-1.71,9.28,9.28,0,0,0-3.76-.74A6.58,6.58,0,0,0,285.53,4a4.62,4.62,0,0,0-1.63,3.51,5.52,5.52,0,0,0,.48,2.35,3.54,3.54,0,0,0,1.32,1.42,10,10,0,0,0,2.52,1c.84.17,2,.39,3.53.65s2.5.45,2.95.55a11.46,11.46,0,0,1,2.87,1.11,5.85,5.85,0,0,1,1.74,1.49,6.89,6.89,0,0,1,1.06,2.12,9.27,9.27,0,0,1,.42,2.88A10.15,10.15,0,0,1,299.63,26a10.38,10.38,0,0,1-2.43,2.93,11.69,11.69,0,0,1-3.2,2,17,17,0,0,1-6.31,1.05,21,21,0,0,1-4.8-.5,23.69,23.69,0,0,1-4.62-1.73,31.8,31.8,0,0,0,.7-7.61h1.84a27.18,27.18,0,0,0,.24,3.93,6.94,6.94,0,0,0,2.85,2.38,9.47,9.47,0,0,0,4.4,1,9,9,0,0,0,3.72-.73,4.92,4.92,0,0,0,2.36-2,5.82,5.82,0,0,0,.74-2.93,5,5,0,0,0-.52-2.37A3.78,3.78,0,0,0,293,19.8a17.09,17.09,0,0,0-3.85-1.22q-4-.84-5.22-1.21a7.58,7.58,0,0,1-3-1.64,6.69,6.69,0,0,1-1.72-2.6,9.21,9.21,0,0,1-.57-3.27,10,10,0,0,1,1-4.53,8.14,8.14,0,0,1,2.72-3.21A11.44,11.44,0,0,1,286.16.49,19.11,19.11,0,0,1,290.52,0a23.76,23.76,0,0,1,4.5.42,14.86,14.86,0,0,1,3.78,1.2l.17.53q-.3,1.43-.45,2.79C298.43,5.85,298.36,7.05,298.32,8.54Z"/></g></g></svg>