<?xml version="1.0" encoding="utf-8"?>
<!-- Generator: Adobe Illustrator 17.0.0, SVG Export Plug-In . SVG Version: 6.00 Build 0)  -->
<!DOCTYPE svg PUBLIC "-//W3C//DTD SVG 1.1//EN" "http://www.w3.org/Graphics/SVG/1.1/DTD/svg11.dtd">
<svg version="1.1" id="Layer_1" xmlns="http://www.w3.org/2000/svg" xmlns:xlink="http://www.w3.org/1999/xlink" x="0px" y="0px"
	 width="30.104px" height="30.458px" viewBox="0 0 30.104 30.458" enable-background="new 0 0 30.104 30.458" xml:space="preserve">
<g>
	<g>
		<path fill="#FFFFFF" d="M26.699,3.083c0.246,0,0.447,0.2,0.447,0.447v23.252c0,0.246-0.2,0.447-0.447,0.447h-5.656V19.1h2.387
			h0.879l0.113-0.872l0.511-3.948l0.146-1.128h-1.138h-2.899v-1.52c0-0.75,0-0.906,0.966-0.906l2.077-0.017l0.992-0.008V9.709V6.185
			V5.318l-0.859-0.122c-0.373-0.053-1.638-0.163-3.171-0.163c-3.699,0-6.09,2.437-6.09,6.209v1.911h-2.405h-1v1V18.1v1h1h2.405
			v8.129H3.447C3.2,27.229,3,27.029,3,26.782V3.53c0-0.246,0.2-0.447,0.447-0.447H26.699 M26.699,2.083H3.447
			C2.648,2.083,2,2.73,2,3.53v23.252c0,0.799,0.648,1.447,1.447,1.447h12.512V18.1h-3.405v-3.948h3.405v-2.911
			c0-3.371,2.077-5.209,5.09-5.209c1.429,0,2.673,0.102,3.03,0.153v3.524l-2.077,0.017c-1.653,0-1.958,0.766-1.958,1.906v2.52h3.899
			L23.431,18.1h-3.387v10.129h6.656c0.799,0,1.447-0.648,1.447-1.447V3.53C28.146,2.73,27.498,2.083,26.699,2.083L26.699,2.083z"/>
	</g>
</g>
</svg>
