<?xml version="1.0" encoding="utf-8"?>
<!-- Generator: Adobe Illustrator 23.0.3, SVG Export Plug-In . SVG Version: 6.00 Build 0)  -->
<svg version="1.1" id="Layer_1" xmlns="http://www.w3.org/2000/svg" xmlns:xlink="http://www.w3.org/1999/xlink" x="0px" y="0px"
	 viewBox="0 0 237.5 47.1" style="enable-background:new 0 0 237.5 47.1;" xml:space="preserve">
<style type="text/css">
	.st0{fill:#FFFFFF;}
	.st1{fill:#CC6C19;}
</style>
<g>
	<g>
		<g>
			<g>
				<g>
					<g>
						<path class="st0" d="M18,33.2h2.2L21.6,44h0l1.4-10.8h2L23,47.1h-2.9L18,33.2z"/>
						<path class="st0" d="M26.9,43.8v-7.3c0-2.2,1.2-3.5,3.3-3.5c2.1,0,3.3,1.3,3.3,3.5v7.3c0,2.2-1.2,3.5-3.3,3.5
							C28.1,47.3,26.9,46,26.9,43.8z M31.4,43.9v-7.6c0-1-0.4-1.4-1.1-1.4c-0.7,0-1.1,0.4-1.1,1.4v7.6c0,1,0.4,1.4,1.1,1.4
							C31,45.3,31.4,44.9,31.4,43.9z"/>
						<path class="st0" d="M35.7,43.8V43h2.1v1c0,1,0.4,1.4,1.1,1.4c0.7,0,1.1-0.4,1.1-1.4c0-1.2-0.4-1.9-1.9-3.1
							c-1.8-1.6-2.4-2.7-2.4-4.3c0-2.2,1.1-3.5,3.3-3.5c2.1,0,3.2,1.3,3.2,3.5V37h-2.1v-0.7c0-1-0.4-1.4-1.1-1.4
							c-0.7,0-1.1,0.4-1.1,1.3c0,1,0.5,1.8,1.9,3c1.8,1.6,2.4,2.7,2.4,4.5c0,2.3-1.2,3.5-3.3,3.5C36.7,47.3,35.7,46,35.7,43.8z"/>
						<path class="st0" d="M48.2,43.8V43h2.1v1c0,1,0.4,1.4,1.1,1.4c0.7,0,1.1-0.4,1.1-1.4c0-1.2-0.4-1.9-1.9-3.1
							c-1.8-1.6-2.4-2.7-2.4-4.3c0-2.2,1.1-3.5,3.3-3.5s3.2,1.3,3.2,3.5V37h-2.1v-0.7c0-1-0.4-1.4-1.1-1.4c-0.7,0-1.1,0.4-1.1,1.3
							c0,1,0.5,1.8,1.9,3c1.8,1.6,2.4,2.7,2.4,4.5c0,2.3-1.2,3.5-3.3,3.5C49.3,47.3,48.2,46,48.2,43.8z"/>
						<path class="st0" d="M56.8,43.8v-7.3c0-2.2,1.2-3.5,3.3-3.5c2.1,0,3.3,1.3,3.3,3.5v7.3c0,2.2-1.2,3.5-3.3,3.5
							C58,47.3,56.8,46,56.8,43.8z M61.3,43.9v-7.6c0-1-0.4-1.4-1.1-1.4c-0.7,0-1.1,0.4-1.1,1.4v7.6c0,1,0.4,1.4,1.1,1.4
							C60.9,45.3,61.3,44.9,61.3,43.9z"/>
						<path class="st0" d="M66,33.2h3.2c2.3,0,3.2,1.1,3.2,3.2v0.9c0,1.4-0.5,2.3-1.4,2.7v0c1.1,0.3,1.5,1.4,1.5,2.9v2.4
							c0,0.7,0,1.2,0.2,1.7h-2.2c-0.1-0.4-0.2-0.6-0.2-1.7v-2.5c0-1.3-0.4-1.7-1.4-1.7h-0.8v6H66V33.2z M68.9,39.1
							c0.8,0,1.3-0.4,1.3-1.5v-1.1c0-1-0.3-1.4-1.1-1.4h-1v4H68.9z"/>
						<path class="st0" d="M75,33.2h3.2c2.2,0,3.3,1.2,3.3,3.4V38c0,2.2-1.1,3.4-3.3,3.4h-1v5.7H75V33.2z M78.2,39.4
							c0.7,0,1.1-0.3,1.1-1.3v-1.7c0-1-0.4-1.3-1.1-1.3h-1v4.3H78.2z"/>
						<path class="st0" d="M83.6,33.2h3.2c2.3,0,3.2,1.1,3.2,3.2v0.9c0,1.4-0.5,2.3-1.4,2.7v0c1.1,0.3,1.5,1.4,1.5,2.9v2.4
							c0,0.7,0,1.2,0.2,1.7h-2.2C88,46.7,88,46.5,88,45.4v-2.5c0-1.3-0.4-1.7-1.4-1.7h-0.8v6h-2.2V33.2z M86.6,39.1
							c0.8,0,1.3-0.4,1.3-1.5v-1.1c0-1-0.3-1.4-1.1-1.4h-1v4H86.6z"/>
						<path class="st0" d="M92.6,33.2h6v2h-3.8v3.7h3v2h-3v4.3h3.8v2h-6V33.2z"/>
						<path class="st0" d="M100.9,33.2h2.7l2.1,8.3h0v-8.3h1.9v13.9h-2.2l-2.6-10.2h0v10.2h-1.9V33.2z"/>
						<path class="st0" d="M110.3,33.2h3.3c2.2,0,3.3,1.2,3.3,3.4v7c0,2.2-1.1,3.4-3.3,3.4h-3.3V33.2z M113.6,45.1
							c0.7,0,1.1-0.4,1.1-1.4v-7.2c0-1-0.4-1.4-1.1-1.4h-1.1v9.9H113.6z"/>
						<path class="st0" d="M119.4,33.2h2.2v13.9h-2.2V33.2z"/>
						<path class="st0" d="M124.2,33.2h6v2h-3.8v3.7h3v2h-3v4.3h3.8v2h-6V33.2z"/>
						<path class="st0" d="M132.4,33.2h2.7l2.1,8.3h0v-8.3h1.9v13.9h-2.2l-2.6-10.2h0v10.2h-1.9V33.2z"/>
						<path class="st0" d="M141.9,33.2h3.3c2.2,0,3.3,1.2,3.3,3.4v7c0,2.2-1.1,3.4-3.3,3.4h-3.3V33.2z M145.2,45.1
							c0.7,0,1.1-0.4,1.1-1.4v-7.2c0-1-0.4-1.4-1.1-1.4h-1.1v9.9H145.2z"/>
						<path class="st0" d="M150.8,43.8v-7.3c0-2.2,1.2-3.5,3.3-3.5c2.1,0,3.3,1.3,3.3,3.5v7.3c0,2.2-1.2,3.5-3.3,3.5
							C152,47.3,150.8,46,150.8,43.8z M155.3,43.9v-7.6c0-1-0.4-1.4-1.1-1.4c-0.7,0-1.1,0.4-1.1,1.4v7.6c0,1,0.4,1.4,1.1,1.4
							C154.9,45.3,155.3,44.9,155.3,43.9z"/>
						<path class="st0" d="M161.6,35.2h-2.3v-2h6.8v2h-2.3v11.9h-2.2V35.2z"/>
						<path class="st0" d="M168.1,33.2h6v2h-3.8v3.7h3v2h-3v4.3h3.8v2h-6V33.2z"/>
						<path class="st0" d="M182.2,33.2h3l2.3,13.9h-2.2l-0.4-2.8v0h-2.5l-0.4,2.7h-2L182.2,33.2z M184.6,42.5l-1-6.9h0l-1,6.9H184.6
							z"/>
						<path class="st0" d="M193.1,33.2h2.2l1.4,10.8h0l1.4-10.8h2l-2.1,13.9h-2.9L193.1,33.2z"/>
						<path class="st0" d="M202,43.8v-7.3c0-2.2,1.2-3.5,3.3-3.5c2.1,0,3.3,1.3,3.3,3.5v7.3c0,2.2-1.2,3.5-3.3,3.5
							C203.2,47.3,202,46,202,43.8z M206.5,43.9v-7.6c0-1-0.4-1.4-1.1-1.4c-0.7,0-1.1,0.4-1.1,1.4v7.6c0,1,0.4,1.4,1.1,1.4
							C206,45.3,206.5,44.9,206.5,43.9z"/>
						<path class="st0" d="M210.8,43.8V43h2.1v1c0,1,0.4,1.4,1.1,1.4c0.7,0,1.1-0.4,1.1-1.4c0-1.2-0.4-1.9-1.9-3.1
							c-1.8-1.6-2.4-2.7-2.4-4.3c0-2.2,1.1-3.5,3.3-3.5s3.2,1.3,3.2,3.5V37h-2.1v-0.7c0-1-0.4-1.4-1.1-1.4c-0.7,0-1.1,0.4-1.1,1.3
							c0,1,0.5,1.8,1.9,3c1.8,1.6,2.4,2.7,2.4,4.5c0,2.3-1.2,3.5-3.3,3.5C211.8,47.3,210.8,46,210.8,43.8z"/>
					</g>
				</g>
			</g>
		</g>
	</g>
	<g>
		<g>
			<path class="st1" d="M0,24.2v-0.9c0.7-0.3,1.3-0.7,1.7-1c0.1-0.5,0.1-1.3,0.2-2.4C2,17.9,2,16.5,2,15.5V7.7C2,7.4,2,6.3,2,4.3
				c0-1.3-0.1-2.1-0.2-2.4C1.7,1.8,1.6,1.7,1.5,1.7C1.1,1.5,0.3,1.4-1,1.4v-1.5L3,0c0.8,0,1.6,0,2.3,0c1.6,0,3.4,0,5.3-0.1l3.5-0.1
				c0.4,0,1.3,0,2.5,0.1c0.1,0,0.3,0,0.6,0.1l0.1,0.2L17,2.8c0,0.2-0.1,1-0.2,2.5h-1.4c0-1.4-0.1-2.2-0.2-2.5c0-0.2-0.1-0.3-0.2-0.3
				c-0.2-0.1-0.6-0.2-1.4-0.3c-1.1-0.1-2.3-0.2-3.4-0.2c-1,0-2.1,0-3.2,0.1C7,3.4,6.9,5,6.9,7v3.6c0.8,0.1,1.6,0.1,2.5,0.1
				c0.3,0,1.2,0,2.9-0.1c0.6,0,1-0.1,1.1-0.1c0.1-0.1,0.2-0.2,0.3-0.4c0.1-0.4,0.2-1.2,0.2-2.2h1.4l-0.1,3.8l0.1,3.8h-1.5
				c0-1.3-0.1-2.2-0.3-2.5c-0.1-0.2-0.4-0.4-0.7-0.4c-0.8-0.1-1.8-0.2-3.1-0.2c-1.1,0-2,0-2.8,0.1v7.4c0,0.8,0,1.5,0.1,2.1
				c0.9,0.1,2,0.1,3.3,0.1c1.3,0,2.4,0,3.5-0.1c1.1-0.1,1.7-0.2,2-0.3c0.1,0,0.2-0.2,0.2-0.3c0.2-0.6,0.4-1.6,0.7-3.2h1.4
				c-0.3,2.3-0.4,4.2-0.4,5.7l-0.2,0.2c-0.7,0.1-1.8,0.1-3.2,0.1l-2.8-0.1c-2.8,0-4.7-0.1-5.7-0.1C5.5,24.1,3.6,24.1,0,24.2z"/>
			<path class="st1" d="M24.5,24.2v-0.9c0.3-0.1,0.7-0.4,1.3-0.7c0.2-0.1,0.4-0.3,0.5-0.3c0-0.1,0.1-0.1,0.1-0.2
				c0.1-0.3,0.1-1.3,0.2-3.1c0-1.8,0.1-3.9,0.1-6.4c0-3.7,0-5.9,0-6.8c0-2.2-0.1-3.4-0.2-3.7c0-0.1-0.1-0.2-0.3-0.3
				c-0.3-0.2-1.1-0.3-2.7-0.3v-1.5C24.8,0,26.5,0,28.4,0c2.1,0,4.1,0,6-0.1v1.5c-1.3,0.1-2.1,0.2-2.4,0.3c-0.1,0.1-0.2,0.2-0.3,0.3
				c-0.1,0.2-0.1,0.9-0.2,2.1c-0.1,1.3-0.1,2.9-0.1,4.8c0,0.2,0,1.9,0,5c0,1.7,0,3.3,0,4.9c0,1.6,0,2.6,0,3c1.6,0.1,2.7,0.1,3.3,0.1
				c1.8,0,3.3-0.1,4.6-0.3c0.5-0.1,0.8-0.1,0.9-0.2c0.1-0.1,0.2-0.3,0.3-0.6c0.2-0.9,0.5-1.9,0.7-3h1.4c0,0.3-0.1,0.5-0.1,0.6
				l-0.4,3.5c-0.1,1.1-0.1,1.8-0.2,2c-0.3,0.1-0.7,0.2-1,0.2c-0.7,0.1-1.8,0.1-3.3,0.1c-0.2,0-1.6,0-4.1-0.1c-1.9,0-3.2-0.1-4-0.1
				C28.5,24,26.8,24.1,24.5,24.2z"/>
			<path class="st1" d="M47,24.2v-0.9c0.7-0.3,1.3-0.7,1.7-1c0.1-0.5,0.1-1.3,0.2-2.4c0.1-2,0.1-3.4,0.1-4.3V7.7
				c0-0.3,0-1.4-0.1-3.4c0-1.3-0.1-2.1-0.2-2.4c-0.1-0.1-0.1-0.2-0.3-0.3c-0.3-0.1-1.1-0.2-2.5-0.3v-1.5L50,0c0.8,0,1.6,0,2.3,0
				c1.6,0,3.4,0,5.3-0.1l3.5-0.1c0.4,0,1.3,0,2.5,0.1c0.1,0,0.3,0,0.6,0.1l0.1,0.2L64,2.8c0,0.2-0.1,1-0.2,2.5h-1.4
				c0-1.4-0.1-2.2-0.2-2.5c0-0.2-0.1-0.3-0.2-0.3c-0.2-0.1-0.6-0.2-1.4-0.3c-1.1-0.1-2.3-0.2-3.4-0.2c-1,0-2.1,0-3.2,0.1
				C54.1,3.4,54,5,54,7v3.6c0.8,0.1,1.6,0.1,2.5,0.1c0.3,0,1.2,0,2.9-0.1c0.6,0,1-0.1,1.1-0.1c0.1-0.1,0.2-0.2,0.3-0.4
				c0.1-0.4,0.2-1.2,0.2-2.2h1.4l-0.1,3.8l0.1,3.8h-1.5c0-1.3-0.1-2.2-0.3-2.5c-0.1-0.2-0.4-0.4-0.7-0.4c-0.8-0.1-1.8-0.2-3.1-0.2
				c-1.1,0-2,0-2.8,0.1v7.4c0,0.8,0,1.5,0.1,2.1c0.9,0.1,2,0.1,3.3,0.1c1.3,0,2.4,0,3.5-0.1c1.1-0.1,1.7-0.2,2-0.3
				c0.1,0,0.2-0.2,0.2-0.3c0.2-0.6,0.4-1.6,0.7-3.2h1.4c-0.3,2.3-0.4,4.2-0.4,5.7l-0.2,0.2c-0.7,0.1-1.8,0.1-3.2,0.1l-2.8-0.1
				c-2.8,0-4.7-0.1-5.7-0.1C52.5,24.1,50.6,24.1,47,24.2z"/>
			<path class="st1" d="M70.4,24.2v-1.5c1.3-0.1,2.1-0.2,2.3-0.3c0.1,0,0.2-0.1,0.3-0.2c0.1-0.2,0.2-0.4,0.2-0.7
				c0.1-0.7,0.2-2.1,0.2-4.3c0-1.1,0.1-2.9,0.1-5.6c0-2.4,0-4.4-0.1-6.2c0-1.8-0.1-2.9-0.2-3.2c0-0.2-0.1-0.3-0.2-0.4
				c-0.1-0.1-0.3-0.2-0.6-0.2c-0.8-0.1-1.5-0.2-2.1-0.2v-1.5C72.7,0,74.4,0,75.3,0c1.2,0,2.4,0,3.6-0.1l1.5,3.4l1.2,2.6l5.5,11.4
				c1.2-2.3,2.1-4.1,2.7-5.3l2.3-4.8c1.3-2.7,2.1-4.3,2.3-5c0.3-0.6,0.6-1.4,1-2.4C96.9,0,97.9,0,98.3,0l5.2-0.1v1.5h-0.2
				c-1.2,0-1.9,0.1-2.2,0.4c-0.3,0.3-0.5,0.8-0.5,1.6c0,1,0,1.7,0,2.2l-0.1,4.9v6.1c0,1.5,0,2.4,0,2.6c0.1,1.5,0.2,2.4,0.2,2.7
				c0,0.2,0.1,0.3,0.2,0.4c0.1,0.1,0.2,0.2,0.4,0.2c0.2,0.1,0.9,0.1,2.2,0.2v1.5L98,24.1l-5.4,0.1v-1.5c1.4,0,2.3-0.1,2.5-0.3
				c0.2-0.1,0.3-0.4,0.4-0.8c0.1-0.4,0.1-1.9,0.1-4.3V4.7l-4,8.1l-1.9,4c-0.5,1.1-1.2,2.6-2.2,4.6c-0.6,1.2-1,2.2-1.3,3h-1.2
				c-0.4-1-1-2.3-1.8-4c-1.3-2.9-2.4-5.1-3.1-6.5l-4.6-9.3v8.5c0,1.4,0,3.1,0.1,5.1c0,2,0.1,3.1,0.1,3.3c0,0.3,0.1,0.4,0.2,0.6
				c0.1,0.1,0.3,0.2,0.5,0.3c0.2,0.1,1,0.2,2.1,0.2v1.5c-1.3-0.1-2.6-0.1-4-0.1C72.8,24.1,71.4,24.1,70.4,24.2z"/>
			<path class="st1" d="M109.3,24.2v-0.9c0.7-0.3,1.3-0.7,1.7-1c0.1-0.5,0.1-1.3,0.2-2.4c0.1-2,0.1-3.4,0.1-4.3V7.7
				c0-0.3,0-1.4-0.1-3.4c0-1.3-0.1-2.1-0.2-2.4c-0.1-0.1-0.1-0.2-0.3-0.3c-0.3-0.1-1.1-0.2-2.5-0.3v-1.5l4,0.1c0.8,0,1.6,0,2.3,0
				c1.6,0,3.4,0,5.3-0.1l3.5-0.1c0.4,0,1.3,0,2.5,0.1c0.1,0,0.3,0,0.6,0.1l0.1,0.2l-0.3,2.5c0,0.2-0.1,1-0.2,2.5h-1.4
				c0-1.4-0.1-2.2-0.2-2.5c0-0.2-0.1-0.3-0.2-0.3c-0.2-0.1-0.6-0.2-1.4-0.3c-1.1-0.1-2.3-0.2-3.4-0.2c-1,0-2.1,0-3.2,0.1
				c-0.2,1.3-0.2,3-0.2,5v3.6c0.8,0.1,1.6,0.1,2.5,0.1c0.3,0,1.2,0,2.9-0.1c0.6,0,1-0.1,1.1-0.1c0.1-0.1,0.2-0.2,0.3-0.4
				c0.1-0.4,0.2-1.2,0.2-2.2h1.4l-0.1,3.8l0.1,3.8h-1.5c0-1.3-0.1-2.2-0.3-2.5c-0.1-0.2-0.4-0.4-0.7-0.4c-0.8-0.1-1.8-0.2-3.1-0.2
				c-1.1,0-2,0-2.8,0.1v7.4c0,0.8,0,1.5,0.1,2.1c0.9,0.1,2,0.1,3.3,0.1c1.3,0,2.4,0,3.5-0.1c1.1-0.1,1.7-0.2,2-0.3
				c0.1,0,0.2-0.2,0.2-0.3c0.2-0.6,0.4-1.6,0.7-3.2h1.4c-0.3,2.3-0.4,4.2-0.4,5.7l-0.2,0.2c-0.7,0.1-1.8,0.1-3.2,0.1l-2.8-0.1
				c-2.8,0-4.7-0.1-5.7-0.1C114.8,24.1,112.9,24.1,109.3,24.2z"/>
			<path class="st1" d="M132.1,22.7c1.4-0.1,2.1-0.1,2.3-0.2c0.1,0,0.2-0.1,0.3-0.2c0.1-0.1,0.2-0.3,0.2-0.6
				c0.1-0.4,0.2-1.5,0.2-3.2c0-1,0.1-2.2,0.1-3.8V9.1l-0.1-5.1c0-0.8,0-1.4-0.1-1.7c-0.1-0.3-0.1-0.4-0.3-0.6
				c-0.1-0.1-0.3-0.2-0.5-0.3c-0.3-0.1-1-0.1-2.2-0.2v-1.5c1.5,0.1,2.6,0.1,3.2,0.1l2.5-0.1l1.6-0.1c2.4,3.1,5.3,6.7,8.7,10.8
				c2.4,2.9,4.5,5.2,6.1,6.9v-4c0-6.2-0.1-9.9-0.2-11c0-0.4-0.2-0.7-0.3-0.8c-0.3-0.2-1.2-0.3-2.7-0.3v-1.5c1.4,0.1,2.7,0.1,3.9,0.1
				c1.1,0,2.6,0,4.4-0.1v1.5c-1.4,0-2.3,0.1-2.5,0.3c-0.1,0.1-0.2,0.1-0.2,0.3c-0.2,0.6-0.3,1.9-0.3,4c-0.1,2.1-0.1,3.6-0.1,4.6
				c0,7.7,0.1,12.4,0.2,14l-0.2,0.2c-1-0.2-2-0.3-3-0.5c-3.7-4.2-9-10.5-15.9-18.8V14c0,1.8,0,3.7,0.1,5.6c0,1.3,0.1,2.2,0.2,2.4
				c0,0.1,0.1,0.3,0.2,0.3c0.1,0.1,0.3,0.1,0.6,0.2c0.8,0.1,1.3,0.1,1.7,0.1c0.1,0,0.2,0,0.3,0v1.4c-2.2,0-3.5,0-3.8,0
				c-1.1,0-2.6,0-4.6,0.1V22.7z"/>
			<path class="st1" d="M168.4,24.2v-1.4c1.4,0,2.2-0.1,2.5-0.3c0.3-0.1,0.4-0.4,0.5-0.7c0.1-0.5,0.2-2,0.2-4.5V6.9
				c0-2.8,0-4.4-0.1-4.8H169c-1.3,0-2.4,0-3.3,0.1c-0.4,0-0.6,0.1-0.7,0.1c-0.1,0.1-0.2,0.3-0.2,0.6c-0.2,0.8-0.2,1.7-0.3,2.7h-1.4
				c0-2.4-0.1-3.7-0.1-4c0-0.5-0.1-1.1-0.2-1.7l0.2-0.2c0.5,0.1,1.1,0.1,1.7,0.1c1,0,2.9,0.1,5.8,0.1h7c2.9,0,4.9,0,5.9-0.1
				c0.5,0,1.1-0.1,1.6-0.1l0.2,0.2c-0.1,0.7-0.2,1.3-0.2,1.9c0,0.1,0,1.4-0.1,3.8h-1.4c0-0.9-0.1-1.8-0.2-2.6
				c-0.1-0.4-0.1-0.7-0.2-0.7c-0.1-0.1-0.3-0.1-0.6-0.1c-0.9-0.1-2.1-0.1-3.4-0.1h-2.5c0,0.4-0.1,2-0.1,4.8v10.4
				c0,2.5,0.1,4,0.2,4.5c0.1,0.3,0.3,0.5,0.5,0.7c0.3,0.1,1.1,0.2,2.5,0.3v1.4c-2.2-0.1-4.1-0.2-5.7-0.2
				C172.4,24,170.5,24.1,168.4,24.2z"/>
			<path class="st1" d="M188.1,12.3c0-2.1,0.3-4,1-5.5s1.6-2.9,2.8-4c1.2-1.1,2.5-1.9,3.9-2.4c1.8-0.6,3.8-0.9,5.9-0.9
				c2.1,0,4,0.3,5.7,0.9c1.3,0.5,2.4,1.1,3.4,2c1,0.9,1.7,1.7,2.2,2.6c0.5,0.9,0.9,1.9,1.2,2.9c0.3,1.1,0.4,2.2,0.4,3.5
				c0,2.2-0.4,4.2-1.1,6.1c-0.6,1.4-1.4,2.6-2.4,3.7c-1.1,1.1-2.3,1.9-3.7,2.5c-1.9,0.8-4,1.2-6.4,1.2c-2.6,0-4.8-0.5-6.7-1.4
				c-1.9-0.9-3.3-2.3-4.4-4.2C188.6,17.4,188.1,15.1,188.1,12.3z M193.4,11.3c0,2.7,0.4,4.9,1.1,6.7c0.7,1.8,1.7,3,2.8,3.7
				c1.2,0.7,2.5,1.1,4.1,1.1c1.5,0,2.8-0.3,3.9-1c1.2-0.7,2.1-1.9,2.7-3.5c0.7-1.7,1-3.7,1-6c0-1.6-0.2-3.1-0.5-4.4
				c-0.4-1.3-0.9-2.5-1.5-3.4c-0.7-0.9-1.4-1.7-2.3-2.2c-0.9-0.5-2.1-0.7-3.6-0.7c-1.7,0-3.1,0.4-4.3,1.2c-1.2,0.8-2,2-2.6,3.5
				C193.7,7.7,193.4,9.4,193.4,11.3z"/>
			<path class="st1" d="M235.5,6.3h-1.5c0-1.3-0.1-2.3-0.2-2.8c-0.4-0.5-1-1-1.9-1.4c-0.9-0.4-1.9-0.6-3-0.6c-1.6,0-2.8,0.4-3.7,1.2
				c-0.9,0.8-1.3,1.7-1.3,2.8c0,0.8,0.1,1.4,0.4,1.9c0.2,0.5,0.6,0.9,1,1.1c0.5,0.3,1.1,0.5,2,0.8c0.7,0.1,1.6,0.3,2.8,0.5
				c1.2,0.2,2,0.4,2.3,0.4c0.9,0.2,1.7,0.5,2.3,0.9c0.6,0.3,1,0.7,1.4,1.2c0.3,0.4,0.6,1,0.8,1.7c0.2,0.7,0.3,1.4,0.3,2.3
				c0,1.5-0.3,2.8-0.9,3.9c-0.5,0.8-1.1,1.6-1.9,2.3c-0.8,0.7-1.7,1.2-2.5,1.6c-1.4,0.6-3.1,0.8-5,0.8c-1.4,0-2.7-0.1-3.8-0.4
				c-1.1-0.3-2.3-0.7-3.7-1.4c0.4-1.3,0.5-3.3,0.6-6h1.5c0,0.8,0,1.9,0.2,3.1c0.4,0.7,1.2,1.3,2.3,1.9c1.1,0.5,2.2,0.8,3.5,0.8
				c1.1,0,2.1-0.2,2.9-0.6c0.9-0.4,1.5-0.9,1.9-1.6c0.4-0.7,0.6-1.5,0.6-2.3c0-0.7-0.1-1.4-0.4-1.9c-0.3-0.5-0.7-0.9-1.3-1.3
				c-0.6-0.3-1.6-0.6-3.1-1c-2.1-0.4-3.5-0.8-4.1-1c-1-0.3-1.8-0.7-2.4-1.3c-0.6-0.6-1.1-1.3-1.4-2.1c-0.3-0.8-0.5-1.7-0.5-2.6
				c0-1.3,0.3-2.5,0.8-3.6c0.5-1.1,1.3-1.9,2.2-2.5c0.9-0.6,1.9-1,3-1.3c1.1-0.3,2.3-0.4,3.5-0.4c1.2,0,2.4,0.1,3.6,0.3
				c1.2,0.2,2.2,0.5,3,1l0.1,0.4c-0.2,0.8-0.3,1.5-0.4,2.2C235.6,4.1,235.6,5.1,235.5,6.3z"/>
		</g>
	</g>
</g>
</svg>
