<?xml version="1.0" encoding="utf-8"?>
<!-- Generator: Adobe Illustrator 17.0.0, SVG Export Plug-In . SVG Version: 6.00 Build 0)  -->
<!DOCTYPE svg PUBLIC "-//W3C//DTD SVG 1.1//EN" "http://www.w3.org/Graphics/SVG/1.1/DTD/svg11.dtd">
<svg version="1.1" id="Layer_1" xmlns="http://www.w3.org/2000/svg" xmlns:xlink="http://www.w3.org/1999/xlink" x="0px" y="0px"
	 width="42.333px" height="49.583px" viewBox="0 0 42.333 49.583" enable-background="new 0 0 42.333 49.583" xml:space="preserve">
<polygon fill="#FFFFFF" points="1.093,13.764 7.17,10.291 13.247,13.764 13.247,20.709 7.17,24.182 1.093,20.709 "/>
<polygon fill="#FFFFFF" points="15.113,13.764 21.191,10.291 27.268,13.764 27.268,20.709 21.191,24.182 15.113,20.709 "/>
<polygon fill="#FFFFFF" points="15.113,37.899 21.191,34.426 27.268,37.899 27.268,44.844 21.191,48.317 15.113,44.844 "/>
<polygon fill="#FFFFFF" points="29.09,13.764 35.167,10.291 41.244,13.764 41.244,20.709 35.167,24.182 29.09,20.709 "/>
<polygon fill="#FFFFFF" points="8.125,25.875 14.203,22.402 20.28,25.875 20.28,32.82 14.203,36.292 8.125,32.82 "/>
<polygon fill="#FFFFFF" points="22.102,25.875 28.179,22.402 34.256,25.875 34.256,32.82 28.179,36.292 22.102,32.82 "/>
<polygon fill="#FFFFFF" points="23.068,9.103 23.068,4.948 26.704,2.871 23.068,0.793 19.432,2.871 19.432,7.025 "/>
</svg>
